<svg xmlns="http://www.w3.org/2000/svg" viewBox="0 0 500 500"><path style="fill:#001757;stroke:#0d0e34" d="M 247.794 213.903 L 246.81 76.976 L 254.345 76.963 L 254.592 213.989 L 247.794 213.903 Z"/><ellipse style="fill:#001757;stroke:#001757" cx="250.025" cy="43.859" rx="33.966" ry="33.906"/><path style="fill:#1e8da6;stroke:#1e8da6" d="M 282.472 260.389 L 414.181 330.253 L 410.563 336.234 L 279.38 265.739 L 282.472 260.389 Z"/><path style="fill:#0f1139;stroke:#0d0e34" d="M 255.105 281.394 L 254.485 417.656 L 246.156 417.691 L 246.688 280.51 L 255.105 281.394 Z"/><path style="paint-order:fill;fill:#1e8da6;stroke:#1e8da6" d="M 279.486 229.517 L 410.351 160.07 L 413.923 167.04 L 283.727 235.998 L 279.486 229.517 Z"/><path style="fill:#0fa4a1;stroke:#0fa4a1" d="M 88.545 164.884 L 219.797 236.07 L 222.867 229.568 L 90.887 159.47 L 88.545 164.884 Z"/><path style="fill:#0fa4a1;stroke:#0fa4a1" d="M 224.76 266.9 L 95.55 334.829 L 92.878 328.37 L 219.955 261.275 L 224.76 266.9 Z"/><ellipse style="paint-order:fill;fill:#02b5e1;stroke:#02b5e1" cx="251.242" cy="247.466" rx="33.966" ry="33.906"/><path style="fill:#0d0e34;stroke:#0d0e34" d="M 279.502 433.617 L 408.666 359.443 C 408.666 359.443 412.398 366.965 412.398 366.916 C 412.398 366.867 281.544 440.217 281.544 440.217 L 279.502 433.617 Z"/><path style="fill:#0d0e34;stroke:#0d0e34" d="M 223.119 431.408 L 96.643 361.068 L 93.265 368.047 L 218.895 438.099 L 223.119 431.408 Z"/><ellipse style="fill:#001757;stroke:#001757" cx="250.504" cy="451.168" rx="33.966" ry="33.906"/><path style="fill:#5abfbb;stroke:#5abfbb" d="M 435.665 180.895 L 435.859 316.869 L 443.103 315.579 L 442.56 180.697 L 435.665 180.895 Z"/><ellipse style="fill:#001757;stroke:#001757" cx="441.06" cy="349.665" rx="33.966" ry="33.906"/><ellipse style="fill:#02b5e1;stroke:#02b5e1" cx="441.512" cy="147.767" rx="33.966" ry="33.906"/><path style="fill:#54bbb5;stroke:#54bbb5" d="M 64.755 314.523 L 57.928 315.006 L 58.307 182.961 L 65.169 182.865 L 64.755 314.523 Z"/><ellipse style="fill:#001757;stroke:#001757" cx="58.177" cy="149.757" rx="33.966" ry="33.906"/><ellipse style="fill:#3de0cb;stroke:#3de0cb" cx="65.909" cy="348.17" rx="33.966" ry="33.906"/></svg>